<svg viewBox="0 0 100 100" fill="none" xmlns="http://www.w3.org/2000/svg">
  <polygon points="50,5 90,28 90,72 50,95 10,72 10,28" fill="#181a20" />
  <polygon points="50,5 90,28 90,72 50,95 10,72 10,28" stroke="#8a8a93" strokeWidth="2" />
  <path d="M32 25C32 21.6863 34.6863 19 38 19H44C47.3137 19 50 21.6863 50 25V75C50 78.3137 47.3137 81 44 81H38C34.6863 81 32 78.3137 32 75V25Z" fill="#5a5a63" />
  <path d="M46 19H66C69.3137 19 72 21.6863 72 25C72 28.3137 69.3137 31 66 31H46V19Z" fill="#f5f5f7" />
  <path d="M46 44H62C65.3137 44 68 46.6863 68 50C68 53.3137 65.3137 56 62 56H46V44Z" fill="#8a8a93" />
  <path d="M46 69H66C69.3137 69 72 71.6863 72 75C72 78.3137 69.3137 81 66 81H46V69Z" fill="#f5f5f7" />
  <path d="M72 40L74.5 45L80 45.5L76 49.5L77.2 55L72 52.2L66.8 55L68 49.5L64 45.5L69.5 45L72 40Z" fill="#f5f5f7" />
</svg>
